<?xml version="1.0" encoding="UTF-8" standalone="no"?>
<!-- Generator: Adobe Illustrator 17.1.0, SVG Export Plug-In . SVG Version: 6.00 Build 0)  -->

<svg
   version="1.1"
   id="AQUA_LEAP_LOGO"
   x="0px"
   y="0px"
   viewBox="0 0 920.20001 247.2"
   enable-background="new 0 0 1000 300"
   xml:space="preserve"
   sodipodi:docname="AQUA LEAP LOGO.svg"
   width="920.20001"
   height="247.2"
   inkscape:version="1.1.1 (3bf5ae0d25, 2021-09-20)"
   xmlns:inkscape="http://www.inkscape.org/namespaces/inkscape"
   xmlns:sodipodi="http://sodipodi.sourceforge.net/DTD/sodipodi-0.dtd"
   xmlns="http://www.w3.org/2000/svg"
   xmlns:svg="http://www.w3.org/2000/svg"><defs
   id="defs75" /><sodipodi:namedview
   id="namedview73"
   pagecolor="#ffffff"
   bordercolor="#666666"
   borderopacity="1.0"
   inkscape:pageshadow="2"
   inkscape:pageopacity="0.0"
   inkscape:pagecheckerboard="true"
   showgrid="false"
   fit-margin-top="0"
   fit-margin-left="0"
   fit-margin-right="0"
   fit-margin-bottom="0"
   inkscape:zoom="1.375"
   inkscape:cx="460"
   inkscape:cy="124"
   inkscape:window-width="3840"
   inkscape:window-height="1511"
   inkscape:window-x="-9"
   inkscape:window-y="-9"
   inkscape:window-maximized="1"
   inkscape:current-layer="AQUA_LEAP_LOGO" />
<g
   id="g70"
   style="fill:#ffffff"
   transform="translate(-39.9,-26.4)">
	<g
   id="g54"
   style="fill:#ffffff">
		<path
   fill="#185B69"
   d="m 313.2,213.3 v -23 h 9.7 c 3.2,0 5.6,0.8 7.4,2.5 1.8,1.7 2.7,3.7 2.7,6.3 0,2.5 -0.9,4.6 -2.7,6.3 -1.8,1.7 -4.3,2.5 -7.5,2.5 h -5.5 v 5.5 h -4.1 z m 4.2,-9 h 5.8 c 1.7,0 3,-0.5 4,-1.5 1,-1 1.5,-2.2 1.5,-3.7 0,-1.5 -0.5,-2.7 -1.5,-3.7 -1,-1 -2.4,-1.5 -4,-1.5 h -5.8 z"
   id="path2"
   style="fill:#ffffff" />
		<path
   fill="#185B69"
   d="m 351.6,193.4 c 2.3,-2.3 5.2,-3.4 8.6,-3.4 3.4,0 6.3,1.1 8.6,3.4 2.3,2.3 3.5,5.1 3.5,8.4 0,3.3 -1.2,6.1 -3.5,8.4 -2.3,2.3 -5.2,3.4 -8.6,3.4 -3.4,0 -6.3,-1.1 -8.6,-3.4 -2.3,-2.3 -3.5,-5.1 -3.5,-8.4 0.1,-3.3 1.2,-6.1 3.5,-8.4 z m 8.7,16.5 c 2.2,0 4,-0.8 5.5,-2.4 1.5,-1.6 2.2,-3.5 2.2,-5.8 0,-2.3 -0.7,-4.2 -2.2,-5.7 -1.5,-1.6 -3.3,-2.4 -5.5,-2.4 -2.2,0 -4.1,0.8 -5.6,2.4 -1.5,1.6 -2.3,3.5 -2.3,5.7 0,2.2 0.7,4.2 2.3,5.8 1.5,1.6 3.3,2.4 5.6,2.4 z"
   id="path4"
   style="fill:#ffffff" />
		<path
   fill="#185B69"
   d="m 393.3,213.3 -7.1,-23 h 4.1 l 4.3,13.9 1.2,3.8 1,-3.8 3.6,-13.8 h 4.7 l 3.5,13.5 1,3.7 c 0.4,-1.3 0.7,-2.5 1.1,-3.7 l 4.2,-13.5 h 3.9 l -7.2,23 H 407 l -3.7,-13.3 c -0.2,-0.6 -0.4,-1.3 -0.5,-2 -0.2,-0.8 -0.3,-1.4 -0.4,-1.8 l -0.1,-0.7 c -0.3,1.7 -0.7,3.2 -1.1,4.5 l -3.7,13.4 h -4.2 z"
   id="path6"
   style="fill:#ffffff" />
		<path
   fill="#185B69"
   d="m 433.6,213.3 v -23 h 17.8 v 3.5 h -13.7 v 5.6 h 12.9 v 3.5 h -12.9 v 6.8 h 14.2 v 3.5 h -18.3 z"
   id="path8"
   style="fill:#ffffff" />
		<path
   fill="#185B69"
   d="m 467.6,213.3 v -23 h 9.6 c 3.3,0 5.8,0.8 7.5,2.5 1.7,1.6 2.6,3.7 2.6,6.3 0,1.6 -0.4,3.1 -1.2,4.4 -0.8,1.3 -2,2.4 -3.5,3.1 l 5,6.7 h -5 l -4,-5.5 c -0.7,0 -1.9,0.1 -3.7,0.1 h -3.3 v 5.5 h -4 z m 4.1,-9 h 5.8 c 1.7,0 3.1,-0.5 4.1,-1.5 1,-1 1.5,-2.2 1.5,-3.7 0,-1.5 -0.5,-2.7 -1.5,-3.7 -1,-1 -2.4,-1.5 -4,-1.5 h -5.8 v 10.4 z"
   id="path10"
   style="fill:#ffffff" />
		<path
   fill="#185B69"
   d="m 503.6,213.3 v -23 h 17.8 v 3.5 h -13.7 v 5.6 h 12.9 v 3.5 h -12.9 v 6.8 h 14.2 v 3.5 h -18.3 z"
   id="path12"
   style="fill:#ffffff" />
		<path
   fill="#185B69"
   d="m 537.5,213.3 v -23 h 9 c 3.6,0 6.6,1.1 8.8,3.3 2.2,2.2 3.4,4.9 3.4,8.2 0,3.2 -1.1,6 -3.4,8.2 -2.2,2.2 -5.2,3.3 -8.8,3.3 z m 4.1,-3.6 h 4.7 c 2.4,0 4.4,-0.7 5.8,-2.2 1.5,-1.5 2.2,-3.4 2.2,-5.7 0,-2.3 -0.7,-4.2 -2.2,-5.7 -1.5,-1.5 -3.4,-2.2 -5.8,-2.2 h -4.7 z"
   id="path14"
   style="fill:#ffffff" />
		<path
   fill="#185B69"
   d="m 596.1,213.3 v -23 h 10.7 c 2,0 3.7,0.5 5,1.5 1.3,1 1.9,2.4 1.9,4.3 0,0.9 -0.2,1.7 -0.7,2.5 -0.5,0.8 -1,1.3 -1.7,1.6 1.3,0.3 2.4,1 3.3,2.1 0.9,1.1 1.3,2.4 1.3,3.8 0,2.3 -0.8,4.1 -2.4,5.3 -1.6,1.2 -3.7,1.9 -6.3,1.9 z m 4.1,-14.3 h 6.4 c 0.9,0 1.6,-0.2 2.1,-0.7 0.5,-0.5 0.7,-1.1 0.7,-1.8 0,-0.8 -0.3,-1.4 -0.8,-1.9 -0.5,-0.5 -1.2,-0.7 -2.2,-0.7 h -6.2 z m 0,10.7 h 6.6 c 1.5,0 2.6,-0.3 3.5,-0.9 0.8,-0.6 1.3,-1.5 1.3,-2.6 0,-1.2 -0.4,-2.1 -1.2,-2.7 -0.8,-0.6 -1.8,-1 -3.2,-1 h -7 z"
   id="path16"
   style="fill:#ffffff" />
		<path
   fill="#185B69"
   d="m 638.7,213.3 v -10.6 l -8.9,-12.4 h 4.7 l 3.3,4.7 2.9,4.1 c 1.3,-1.9 2.2,-3.2 2.9,-4.1 l 3.3,-4.7 h 4.7 l -8.8,12.4 v 10.6 z"
   id="path18"
   style="fill:#ffffff" />
		<path
   fill="#185B69"
   d="m 685.5,213.3 10.3,-23 h 3.9 l 10.3,23 h -4.2 l -1.8,-4 h -12.7 l -1.8,4 z M 693,206 h 9.7 l -2.6,-5.9 c -0.3,-0.7 -0.6,-1.5 -1,-2.4 -0.4,-0.9 -0.7,-1.6 -0.9,-2.2 l -0.3,-0.9 c -0.8,2.1 -1.5,4 -2.2,5.5 z"
   id="path20"
   style="fill:#ffffff" />
		<path
   fill="#185B69"
   d="m 724.8,213.3 v -23 h 9.6 c 3.3,0 5.8,0.8 7.5,2.5 1.7,1.6 2.6,3.7 2.6,6.3 0,1.6 -0.4,3.1 -1.2,4.4 -0.8,1.4 -2,2.4 -3.5,3.1 l 5,6.7 h -5 l -4,-5.5 c -0.7,0 -1.9,0.1 -3.7,0.1 h -3.3 v 5.5 h -4 z m 4.1,-9 h 5.8 c 1.7,0 3.1,-0.5 4.1,-1.5 1,-1 1.5,-2.2 1.5,-3.7 0,-1.5 -0.5,-2.7 -1.5,-3.7 -1,-1 -2.4,-1.5 -4,-1.5 H 729 v 10.4 z"
   id="path22"
   style="fill:#ffffff" />
		<path
   fill="#185B69"
   d="m 767,213.3 v -19.4 h -8 v -3.5 h 20.3 v 3.5 h -8.1 v 19.4 z"
   id="path24"
   style="fill:#ffffff" />
		<path
   fill="#185B69"
   d="m 794.5,213.3 v -23 h 17.8 v 3.5 h -13.7 v 5.6 h 12.9 v 3.5 h -12.9 v 6.8 h 14.2 v 3.5 h -18.3 z"
   id="path26"
   style="fill:#ffffff" />
		<path
   fill="#185B69"
   d="m 827.4,201.8 c 0,-3.3 1.2,-6.1 3.5,-8.4 2.3,-2.3 5.2,-3.4 8.6,-3.4 3,0 5.6,0.9 7.7,2.7 l -2.4,2.8 c -1.5,-1.2 -3.2,-1.7 -5.1,-1.7 -2.3,0 -4.3,0.8 -5.8,2.4 -1.5,1.6 -2.3,3.5 -2.3,5.7 0,2.2 0.7,4.2 2.2,5.8 1.5,1.6 3.4,2.4 5.6,2.4 2.3,0 4.2,-0.8 5.8,-2.3 l 2.5,2.8 c -2.3,2.1 -5.1,3.2 -8.3,3.2 -3.4,0 -6.3,-1.1 -8.6,-3.4 -2.3,-2.5 -3.4,-5.3 -3.4,-8.6 z"
   id="path28"
   style="fill:#ffffff" />
		<path
   fill="#185B69"
   d="m 862.9,213.3 v -23 h 4.1 v 9.2 h 11.2 v -9.2 h 4.1 v 23 h -4.1 V 203 H 867 v 10.3 z"
   id="path30"
   style="fill:#ffffff" />
		<path
   fill="#185B69"
   d="m 899.4,213.3 v -23 h 4.4 l 8.1,11.3 c 0.5,0.7 1,1.4 1.6,2.3 0.6,0.9 1.1,1.6 1.4,2.2 l 0.5,0.9 v -16.7 h 4.1 v 23 h -4.3 l -7.7,-10.8 c -0.6,-0.8 -1.2,-1.7 -1.9,-2.6 -0.7,-1 -1.2,-1.7 -1.6,-2.3 l -0.5,-0.8 v 16.5 z"
   id="path32"
   style="fill:#ffffff" />
		<path
   fill="#185B69"
   d="m 938.9,193.4 c 2.3,-2.3 5.2,-3.4 8.6,-3.4 3.4,0 6.3,1.1 8.6,3.4 2.3,2.3 3.5,5.1 3.5,8.4 0,3.3 -1.2,6.1 -3.5,8.4 -2.3,2.3 -5.2,3.4 -8.6,3.4 -3.4,0 -6.3,-1.1 -8.6,-3.4 -2.3,-2.3 -3.5,-5.1 -3.5,-8.4 0,-3.3 1.2,-6.1 3.5,-8.4 z m 8.7,16.5 c 2.2,0 4,-0.8 5.5,-2.4 1.5,-1.6 2.2,-3.5 2.2,-5.8 0,-2.3 -0.7,-4.2 -2.2,-5.7 -1.5,-1.5 -3.3,-2.4 -5.5,-2.4 -2.2,0 -4.1,0.8 -5.6,2.4 -1.5,1.6 -2.2,3.5 -2.2,5.7 0,2.2 0.7,4.2 2.2,5.8 1.5,1.6 3.3,2.4 5.6,2.4 z"
   id="path34"
   style="fill:#ffffff" />
		<g
   id="g52"
   style="fill:#ffffff">
			<path
   fill="#185B69"
   d="m 383.8,176.9 -8.1,-17.8 h -35.9 l -8.1,17.8 h -18.4 l 43,-89.7 h 2.7 l 43,89.7 z m -37.7,-31.8 h 23.3 l -11.7,-25.7 z"
   id="path36"
   style="fill:#ffffff" />
			<path
   fill="#185B69"
   d="m 491,132.1 c 0,12.5 -4.4,23.2 -13.2,32.2 l 12.4,12.7 h -19.3 l -4.2,-4.4 c -6.7,3.5 -13.7,5.3 -20.8,5.3 -11.5,0 -21.9,-4.4 -31.2,-13.1 -9.3,-8.8 -13.9,-19.6 -13.9,-32.6 0,-13 4.6,-23.8 13.9,-32.6 9.3,-8.8 19.7,-13.1 31.2,-13.1 11.8,0 22.2,4.4 31.4,13.1 9.1,8.5 13.7,19.4 13.7,32.5 z m -44.9,29.4 c 3,0 5.8,-0.5 8.5,-1.4 l -15.4,-15.8 h 19.3 l 7.6,7.7 c 4.4,-5.3 6.5,-12 6.5,-20 0,-8.8 -2.5,-15.9 -7.6,-21.3 -5,-5.4 -11.4,-8.1 -19,-8.1 -7.3,0 -13.5,2.8 -18.8,8.3 -5.3,5.5 -7.9,12.6 -7.9,21.2 0,8.6 2.6,15.7 7.9,21.2 5.3,5.5 11.6,8.2 18.9,8.2 z"
   id="path38"
   style="fill:#ffffff" />
			<path
   fill="#185B69"
   d="m 575.3,87.2 v 56.9 c 0,10.2 -3.5,18.3 -10.5,24.5 -7,6.1 -15.5,9.2 -25.4,9.2 -10,0 -18.5,-3.1 -25.5,-9.2 -7,-6.1 -10.5,-14.3 -10.5,-24.5 V 87.2 h 16.4 v 56.9 c 0,6.5 1.9,11.4 5.8,14.6 3.9,3.2 8.5,4.9 13.8,4.9 5.3,0 9.9,-1.6 13.7,-4.9 3.8,-3.2 5.8,-8.1 5.8,-14.6 V 87.2 Z"
   id="path40"
   style="fill:#ffffff" />
			<path
   fill="#185B69"
   d="m 649.2,176.9 -8.1,-17.8 h -35.9 l -8.1,17.8 h -18.4 l 43,-89.7 h 2.7 l 43,89.7 z m -37.7,-31.8 h 23.3 l -11.7,-25.7 z"
   id="path42"
   style="fill:#ffffff" />
			<path
   fill="#185B69"
   d="m 685.1,171.1 h 48.3 v 5.8 H 678.6 V 87.2 h 6.5 z"
   id="path44"
   style="fill:#ffffff" />
			<path
   fill="#185B69"
   d="m 751.2,171 h 47.7 v 5.9 H 744.6 V 87.2 h 53 v 5.9 h -46.4 v 35.7 h 33.6 v 5.9 h -33.6 z"
   id="path46"
   style="fill:#ffffff" />
			<path
   fill="#185B69"
   d="m 883.8,176.9 -12.9,-29.5 h -42.8 l -12.9,29.5 h -6.9 l 40.2,-89.7 h 2 l 40.2,89.7 z m -53.1,-35.2 h 37.7 L 849.5,99 Z"
   id="path48"
   style="fill:#ffffff" />
			<path
   fill="#185B69"
   d="m 929.8,87.2 c 8.9,0 16.1,2.5 21.8,7.6 5.6,5.1 8.5,11.6 8.5,19.7 0,8 -2.8,14.6 -8.5,19.7 -5.6,5.1 -12.9,7.6 -21.8,7.6 h -22.5 v 35.1 h -6.5 V 87.2 Z m -1.1,48.8 c 7.7,0 13.7,-1.9 18.2,-5.8 4.4,-3.9 6.7,-9.1 6.7,-15.7 0,-6.6 -2.2,-11.8 -6.7,-15.7 C 942.5,94.9 936.4,93 928.7,93 h -21.4 v 43 z"
   id="path50"
   style="fill:#ffffff" />
		</g>
	</g>
	<g
   id="g68"
   style="fill:#ffffff">
		<g
   id="g62"
   style="fill:#ffffff">
			<path
   fill="#185B69"
   d="m 159,152.4 v 32 h -15.2 v -7 c -3,5.1 -8.9,7.8 -17.1,7.8 -13.2,0 -21,-7.3 -21,-17 0,-9.9 7,-16.8 24.1,-16.8 h 12.9 c 0,-7 -4.2,-11.1 -12.9,-11.1 -6,0 -12.1,2 -16.2,5.2 l -5.8,-11.4 c 6.2,-4.4 15.2,-6.8 24.2,-6.8 17,0.1 27,8 27,25.1 z m -16.3,14.3 V 161 h -11.2 c -7.6,0 -10,2.8 -10,6.6 0,4.1 3.4,6.8 9.2,6.8 5.4,-0.1 10.1,-2.6 12,-7.7 z"
   id="path56"
   style="fill:#ffffff" />
			<path
   fill="#185B69"
   d="M 173.7,106.9 H 190 v 77.5 h -16.3 z"
   id="path58"
   style="fill:#ffffff" />
			<path
   fill="#185B69"
   d="m 201.1,175 c 0,-6.1 4.5,-10 10.1,-10 5.6,0 10.1,4 10.1,10 0,6 -4.5,10.2 -10.1,10.2 -5.6,0 -10.1,-4.2 -10.1,-10.2 z"
   id="path60"
   style="fill:#ffffff" />
		</g>
		<g
   id="g66"
   style="fill:#ffffff">
			<path
   fill="#185B69"
   d="M 163.5,273.6 C 95.4,273.6 39.9,218.2 39.9,150 39.9,81.9 95.3,26.4 163.5,26.4 c 68.2,0 123.6,55.5 123.6,123.6 0,68.1 -55.5,123.6 -123.6,123.6 z m 0,-240.6 c -64.5,0 -117,52.5 -117,117 0,64.5 52.5,117 117,117 64.5,0 117,-52.5 117,-117 0,-64.5 -52.5,-117 -117,-117 z"
   id="path64"
   style="fill:#ffffff" />
		</g>
	</g>
</g>
</svg>
